<svg xmlns="http://www.w3.org/2000/svg" width="1280" height="720" viewBox="0 0 1280 720">
  <defs>
    <linearGradient id="g" x1="0" y1="0" x2="1" y2="1">
      <stop offset="0" stop-color="#0b0e13"/>
      <stop offset="1" stop-color="#11151c"/>
    </linearGradient>
    <linearGradient id="a" x1="0" y1="0" x2="1" y2="1">
      <stop offset="0" stop-color="#7bd6ff"/>
      <stop offset="1" stop-color="#9effa9"/>
    </linearGradient>
    <pattern id="dots" width="24" height="24" patternUnits="userSpaceOnUse">
      <circle cx="2" cy="2" r="1.5" fill="rgba(255,255,255,.06)"/>
    </pattern>
  </defs>
  <rect width="1280" height="720" fill="url(#g)"/>
  <rect x="16" y="16" width="1248" height="688" rx="28" fill="url(#dots)" opacity=".5"/>
  <g transform="translate(480,240)"><rect x="0" y="0" width="300" height="200" rx="12" fill="#111923" stroke="#2a3a4a"/><rect x="0" y="0" width="300" height="36" rx="12" fill="#1f2633"/><circle cx="18" cy="18" r="6" fill="#ff6b6b"/><circle cx="40" cy="18" r="6" fill="#ffd580"/><circle cx="62" cy="18" r="6" fill="#7bd6ff"/><rect x="20" y="56" width="120" height="120" rx="10" fill="#7bd6ff" opacity=".35"/><rect x="160" y="56" width="120" height="20" rx="6" fill="#9effa9"/><rect x="160" y="86" width="100" height="20" rx="6" fill="#9effa9" opacity=".9"/><rect x="160" y="116" width="120" height="20" rx="6" fill="#9effa9" opacity=".8"/></g>
</svg>